<?xml version="1.0"?><svg width="1538.5" height="1870.5" xmlns="http://www.w3.org/2000/svg">
 <title>shield</title>
 <g>
  <title>Layer 1</title>
  <text fill="#000000" stroke="#000000" stroke-width="0" stroke-dasharray="null" x="400.019221" y="567.961606" id="svg_1" font-size="24" font-family="Arial" text-anchor="middle" xml:space="preserve" transform="matrix(95.9507 0 0 10.478 -37749.5 -5175)"/>
  <path d="m773.422913,20.73077l6.5,0l28,14.5q28,14.5 37,19q9,4.5 61.25,29.249996q52.25,24.75 54,25q1.75,0.25 27.75,11.75q26,11.500008 40.000061,17.000023q14.000244,5.5 40.500366,15.000015q26.5,9.5 33.5,12q7,2.5 17.5,6q10.5,3.5 27,8.5q16.5,5 42,12q25.5,7 49.5,12.5q24,5.5 31,7q7,1.5 44.5,8.5q37.5,7 47,8.5q9.5,1.5 46.5,7.5q37,6 37.5,6q0.5,0 36,7q35.5,7 35.75,7.25l0.25,0.25l-1.5,74.5q-1.5,74.5 -7.5,192.499908q-6,117.999939 -9.5,164.999939q-3.5,47 -8,80.5q-4.5,33.5 -10.5,63.5q-6,30 -13,60.5q-7,30.5 -12.5,53.5q-5.5,23 -13,49.5q-7.5,26.5 -9,32.000061q-1.5,5.500122 -4.5,14.000244q-3,8.5 -7,21q-4,12.5 -12.5,36q-8.5,23.5 -14,37.5q-5.5,14 -13.5,33.5q-8,19.5 -20.5,47q-12.5,27.5 -15,32q-2.5,4.5 -18.25,32.75q-15.75,28.25 -19,33.5q-3.25,5.25 -15.5,26.5q-12.25,21.25 -16,27q-3.75,5.75 -11.5,18q-7.75,12.25 -12.5,19q-4.75,6.75 -11,16q-6.25,9.25 -12,17q-5.75,7.75 -9,13q-3.25,5.25 -9.5,13.5q-6.25,8.25 -12,16.5q-5.75,8.25 -12.5,17q-6.75,8.75 -11.5,15q-4.75,6.25 -20.25,23.75q-15.5,17.5 -36.5,40q-21,22.5 -37,38.5q-16,16 -21.25,20.25q-5.25,4.25 -24.500244,21.5q-19.250183,17.25 -23.500183,21q-4.25,3.75 -21,18.5q-16.75,14.75 -22,19q-5.25,4.25 -12,10q-6.75,5.75 -18.75,15.75q-12,10 -18.25,14.75q-6.25,4.75 -12,8.5q-5.75,3.75 -21,13q-15.25,9.25 -20,12.5q-4.75,3.25 -10.75,6.75q-6,3.5 -12.5,8q-6.5,4.5 -9.5,6.5q-3,2 -13,7q-10,5 -24,11.5q-14,6.5 -19.5,8.5l-5.5,2l-6,-1.5q-6,-1.5 -13,-5q-7,-3.5 -23.5,-12q-16.5,-8.5 -19,-10.5q-2.5,-2 -12.75,-8.75q-10.25,-6.75 -15.5,-10q-5.25,-3.25 -20.5,-12.5q-15.25,-9.25 -21,-13q-5.75,-3.75 -12,-8.5q-6.25,-4.75 -14.25,-11.25q-8,-6.5 -21.25,-17.75q-13.25,-11.25 -23,-19.5q-9.75,-8.25 -28.5,-25q-18.749878,-16.75 -23.999817,-21q-5.25,-4.25 -22.999969,-20q-17.75,-15.75 -19.75,-17.75q-2,-2 -17.75,-17.75q-15.75,-15.75 -22,-22.5q-6.25,-6.75 -27.5,-30q-21.25,-23.25 -25.5,-28.5q-4.25,-5.25 -12.5,-15.5q-8.25,-10.25 -13,-16.5q-4.75,-6.25 -9.5,-13q-4.75,-6.75 -10,-14q-5.25,-7.25 -9.5,-13q-4.25,-5.75 -7.25,-10.25q-3,-4.5 -8.25,-11.75q-5.25,-7.25 -9,-13q-3.75,-5.75 -10,-15q-6.25,-9.25 -9.5,-14.5q-3.25,-5.25 -10.5,-16.5q-7.25,-11.25 -9.5,-15.5q-2.25,-4.25 -12.5,-21.5q-10.25,-17.25 -13.5,-22.5q-3.25,-5.25 -16.25,-28.75q-13,-23.5 -19.5,-35.5q-6.5,-12 -11.5,-22.5q-5,-10.5 -14,-31.5q-9,-21 -9,-21.5q0,-0.5 -9,-23q-9.000015,-22.5 -14.000015,-35.5q-5.000015,-13 -14.000031,-39.5q-9.000008,-26.5 -18.000008,-56.500305q-9,-30 -20,-73q-11,-43 -15.5,-64q-4.5,-21 -12.500008,-61q-7.999996,-40 -9.499996,-52.5q-1.5,-12.5 -6.5,-76.5q-5,-64 -6.5,-96.5q-1.5,-32.5 -3.5,-69q-2,-36.499847 -5.499996,-119.499847q-3.500002,-83 -3.500002,-117.5l0,-34.5l3.250002,-1.75q3.250008,-1.75 17.749996,-4.25q14.500004,-2.5 40.000004,-6.5q25.5,-4 77.500053,-13q52,-9 74.5,-13q22.5,-4 59.5,-12.5q37,-8.5 64,-16q27,-7.5 46.5,-14q19.5,-6.5 30.5,-10q11,-3.5 21,-7q10,-3.5 40,-15.000015q29.999847,-11.500015 56.249786,-23.250023q26.25,-11.75 28,-12q1.75,-0.25 25.25,-11.25q23.5,-11 42.5,-20q19,-9 37.5,-17.999996q18.5,-9 46,-23.5l27.5,-14.5l6.5,0z" id="path2" stroke-width="2px" stroke="#000000" fill-rule="evenodd" fill="#828080"/>
 </g>

</svg>